<mxfile host="app.diagrams.net" modified="2024-07-01T17:48:58.545Z" agent="Mozilla/5.0 (Windows NT 10.0; Win64; x64) AppleWebKit/537.36 (KHTML, like Gecko) Chrome/126.0.0.0 Safari/537.36" etag="0DBZbjgJnC7378Ux4Fma" version="24.6.4" type="device">
  <diagram name="Page-1" id="0T9Rz_yCLsKjhPvrF7qB">
    <mxGraphModel dx="880" dy="1526" grid="1" gridSize="10" guides="1" tooltips="1" connect="1" arrows="1" fold="1" page="1" pageScale="1" pageWidth="850" pageHeight="1100" math="0" shadow="0">
      <root>
        <mxCell id="0" />
        <mxCell id="1" parent="0" />
        <mxCell id="ALEkKSsUB81A3kAc4iDn-31" style="edgeStyle=orthogonalEdgeStyle;rounded=0;orthogonalLoop=1;jettySize=auto;html=1;entryX=0.5;entryY=0;entryDx=0;entryDy=0;" edge="1" parent="1" source="ALEkKSsUB81A3kAc4iDn-37" target="ALEkKSsUB81A3kAc4iDn-14">
          <mxGeometry relative="1" as="geometry">
            <mxPoint x="100" y="210" as="targetPoint" />
          </mxGeometry>
        </mxCell>
        <mxCell id="ALEkKSsUB81A3kAc4iDn-2" value="start" style="rounded=1;whiteSpace=wrap;html=1;" vertex="1" parent="1">
          <mxGeometry x="40" y="60" width="120" height="50" as="geometry" />
        </mxCell>
        <mxCell id="ALEkKSsUB81A3kAc4iDn-14" value="end&lt;div&gt;&lt;br&gt;&lt;/div&gt;" style="whiteSpace=wrap;html=1;rounded=1;" vertex="1" parent="1">
          <mxGeometry x="40" y="990" width="120" height="60" as="geometry" />
        </mxCell>
        <mxCell id="ALEkKSsUB81A3kAc4iDn-28" value="5. Store input in x,&amp;nbsp;&lt;div&gt;store another input in y&lt;span style=&quot;background-color: initial;&quot;&gt;.&lt;/span&gt;&lt;/div&gt;&lt;div&gt;&amp;nbsp;print&lt;/div&gt;" style="text;html=1;align=center;verticalAlign=middle;resizable=0;points=[];autosize=1;strokeColor=none;fillColor=none;" vertex="1" parent="1">
          <mxGeometry x="20" y="-5" width="150" height="60" as="geometry" />
        </mxCell>
        <mxCell id="ALEkKSsUB81A3kAc4iDn-34" value="print (x)" style="shape=document;whiteSpace=wrap;html=1;boundedLbl=1;" vertex="1" parent="1">
          <mxGeometry x="40" y="260" width="120" height="80" as="geometry" />
        </mxCell>
        <mxCell id="ALEkKSsUB81A3kAc4iDn-38" value="" style="edgeStyle=orthogonalEdgeStyle;rounded=0;orthogonalLoop=1;jettySize=auto;html=1;" edge="1" parent="1" source="ALEkKSsUB81A3kAc4iDn-45">
          <mxGeometry relative="1" as="geometry">
            <mxPoint x="100" y="110" as="sourcePoint" />
            <mxPoint x="100" y="570" as="targetPoint" />
          </mxGeometry>
        </mxCell>
        <mxCell id="ALEkKSsUB81A3kAc4iDn-37" value="print (y)" style="shape=document;whiteSpace=wrap;html=1;boundedLbl=1;" vertex="1" parent="1">
          <mxGeometry x="40" y="550" width="120" height="80" as="geometry" />
        </mxCell>
        <mxCell id="ALEkKSsUB81A3kAc4iDn-46" value="" style="edgeStyle=orthogonalEdgeStyle;rounded=0;orthogonalLoop=1;jettySize=auto;html=1;" edge="1" parent="1" source="ALEkKSsUB81A3kAc4iDn-2" target="ALEkKSsUB81A3kAc4iDn-45">
          <mxGeometry relative="1" as="geometry">
            <mxPoint x="100" y="110" as="sourcePoint" />
            <mxPoint x="100" y="570" as="targetPoint" />
          </mxGeometry>
        </mxCell>
        <mxCell id="ALEkKSsUB81A3kAc4iDn-45" value="y: int&lt;div&gt;&quot;what is y?&quot;&lt;/div&gt;" style="shape=card;whiteSpace=wrap;html=1;" vertex="1" parent="1">
          <mxGeometry x="60" y="400" width="80" height="100" as="geometry" />
        </mxCell>
        <mxCell id="ALEkKSsUB81A3kAc4iDn-47" value="x: int&lt;div&gt;&quot;what is x?&quot;&lt;/div&gt;" style="shape=card;whiteSpace=wrap;html=1;" vertex="1" parent="1">
          <mxGeometry x="60" y="130" width="80" height="100" as="geometry" />
        </mxCell>
        <mxCell id="ALEkKSsUB81A3kAc4iDn-48" value="" style="shape=document;whiteSpace=wrap;html=1;boundedLbl=1;" vertex="1" parent="1">
          <mxGeometry x="40" y="700" width="120" height="80" as="geometry" />
        </mxCell>
      </root>
    </mxGraphModel>
  </diagram>
</mxfile>
